<svg width="96" height="96" viewBox="0 0 96 96" fill="none" xmlns="http://www.w3.org/2000/svg">
<g opacity="0.5">
<path d="M48 88C25.908 88 8 70.092 8 48C8 25.908 25.908 8 48 8C70.092 8 88 25.908 88 48C88 70.092 70.092 88 48 88ZM48 80C56.4869 80 64.6263 76.6286 70.6274 70.6274C76.6286 64.6263 80 56.4869 80 48C80 39.5131 76.6286 31.3737 70.6274 25.3726C64.6263 19.3714 56.4869 16 48 16C39.5131 16 31.3737 19.3714 25.3726 25.3726C19.3714 31.3737 16 39.5131 16 48C16 56.4869 19.3714 64.6263 25.3726 70.6274C31.3737 76.6286 39.5131 80 48 80ZM48 28C49.0609 28 50.0783 28.4214 50.8284 29.1716C51.5786 29.9217 52 30.9391 52 32V52C52 53.0609 51.5786 54.0783 50.8284 54.8284C50.0783 55.5786 49.0609 56 48 56C46.9391 56 45.9217 55.5786 45.1716 54.8284C44.4214 54.0783 44 53.0609 44 52V32C44 30.9391 44.4214 29.9217 45.1716 29.1716C45.9217 28.4214 46.9391 28 48 28ZM48 68C46.9391 68 45.9217 67.5786 45.1716 66.8284C44.4214 66.0783 44 65.0609 44 64C44 62.9391 44.4214 61.9217 45.1716 61.1716C45.9217 60.4214 46.9391 60 48 60C49.0609 60 50.0783 60.4214 50.8284 61.1716C51.5786 61.9217 52 62.9391 52 64C52 65.0609 51.5786 66.0783 50.8284 66.8284C50.0783 67.5786 49.0609 68 48 68Z" fill="#ABABAB"/>
</g>
</svg>
