<svg width="25" height="24" viewBox="0 0 25 24" fill="none" xmlns="http://www.w3.org/2000/svg">
<path fill-rule="evenodd" clip-rule="evenodd" d="M13.3265 16.0599C13.0453 16.3408 12.664 16.4986 12.2665 16.4986C11.869 16.4986 11.4878 16.3408 11.2065 16.0599L5.5485 10.4039C5.26724 10.1225 5.10928 9.74089 5.10938 9.34304C5.10947 8.94518 5.26761 8.56365 5.549 8.28239C5.8304 8.00113 6.212 7.84317 6.60986 7.84326C7.00771 7.84336 7.38924 8.00149 7.6705 8.28289L12.2665 12.8789L16.8625 8.28289C17.1453 8.00952 17.5241 7.85814 17.9174 7.86137C18.3107 7.8646 18.687 8.02218 18.9652 8.30016C19.2435 8.57815 19.4014 8.95429 19.405 9.34759C19.4086 9.74088 19.2576 10.1199 18.9845 10.4029L13.3275 16.0609L13.3265 16.0599Z" fill="#FF2C35"/>
</svg>
