<svg width="16" height="20" viewBox="0 0 16 20" fill="currentColor" xmlns="http://www.w3.org/2000/svg">
<path d="M8.35519 0.331642C8.14277 0.119292 7.85472 0 7.55436 0C7.25401 0 6.96595 0.119292 6.75354 0.331642L0.345803 6.73938C0.237618 6.84387 0.151325 6.96885 0.0919611 7.10705C0.0325969 7.24524 0.00134971 7.39388 4.2767e-05 7.54428C-0.00126417 7.69468 0.0273956 7.84383 0.0843492 7.98304C0.141303 8.12224 0.22541 8.24871 0.331763 8.35507C0.438116 8.46142 0.564585 8.54553 0.703791 8.60248C0.842996 8.65943 0.992151 8.68809 1.14255 8.68679C1.29295 8.68548 1.44159 8.65423 1.57978 8.59487C1.71798 8.5355 1.84296 8.44921 1.94745 8.34103L6.42165 3.86683V18.8673C6.42165 19.1677 6.54099 19.4558 6.75342 19.6682C6.96584 19.8807 7.25395 20 7.55436 20C7.85477 20 8.14288 19.8807 8.35531 19.6682C8.56773 19.4558 8.68707 19.1677 8.68707 18.8673V3.86683L13.1613 8.34103C13.3749 8.54736 13.661 8.66153 13.958 8.65895C14.255 8.65637 14.5391 8.53724 14.7491 8.32723C14.9591 8.11722 15.0783 7.83312 15.0808 7.53613C15.0834 7.23913 14.9693 6.95301 14.7629 6.73938L8.35519 0.331642Z" fill="currentColor"/>
</svg>
