<svg width="96" height="96" viewBox="0 0 96 96" fill="none" xmlns="http://www.w3.org/2000/svg">
<g opacity="0.5">
<path d="M18.0937 74.625C18.0937 76.2844 19.4343 77.625 21.0937 77.625H74.9062C76.5655 77.625 77.9062 76.2844 77.9062 74.625V52.7812C77.9062 36.2625 64.5187 22.875 47.9999 22.875C31.4812 22.875 18.0937 36.2625 18.0937 52.7812V74.625ZM24.8437 52.7812C24.8437 39.9938 35.2124 29.625 47.9999 29.625C60.7874 29.625 71.1562 39.9938 71.1562 52.7812V70.875H37.8749V54.8438C37.8749 54.3281 37.453 53.9062 36.9374 53.9062H32.8124C32.2968 53.9062 31.8749 54.3281 31.8749 54.8438V70.875H24.8437V52.7812ZM20.3343 29.1094L24.0468 25.3969C24.3374 25.1062 24.3374 24.6281 24.0468 24.3375L17.6812 17.9719C17.5402 17.8323 17.3498 17.754 17.1515 17.754C16.9531 17.754 16.7627 17.8323 16.6218 17.9719L12.9093 21.6844C12.7697 21.8253 12.6914 22.0157 12.6914 22.2141C12.6914 22.4124 12.7697 22.6028 12.9093 22.7438L19.2749 29.1094C19.5655 29.4 20.0343 29.4 20.3343 29.1094ZM83.1093 21.6844L79.3968 17.9719C79.2558 17.8323 79.0655 17.754 78.8671 17.754C78.6687 17.754 78.4784 17.8323 78.3374 17.9719L71.9718 24.3375C71.8322 24.4785 71.7539 24.6688 71.7539 24.8672C71.7539 25.0656 71.8322 25.2559 71.9718 25.3969L75.6843 29.1094C75.9749 29.4 76.453 29.4 76.7437 29.1094L83.1093 22.7438C83.3999 22.4438 83.3999 21.975 83.1093 21.6844ZM77.9999 83.625H17.9999C16.3405 83.625 14.9999 84.9656 14.9999 86.625V88.875C14.9999 89.2875 15.3374 89.625 15.7499 89.625H80.2499C80.6624 89.625 80.9999 89.2875 80.9999 88.875V86.625C80.9999 84.9656 79.6593 83.625 77.9999 83.625ZM45.3749 16.875H50.6249C51.0374 16.875 51.3749 16.5375 51.3749 16.125V7.125C51.3749 6.7125 51.0374 6.375 50.6249 6.375H45.3749C44.9624 6.375 44.6249 6.7125 44.6249 7.125V16.125C44.6249 16.5375 44.9624 16.875 45.3749 16.875Z" fill="#ABABAB"/>
</g>
</svg>
