<svg width="25" height="24" viewBox="0 0 25 24" fill="currentColor" xmlns="http://www.w3.org/2000/svg">
<path d="M20.2166 21C18.0666 21 15.9709 20.5207 13.9296 19.562C11.8883 18.6033 10.0799 17.3367 8.5046 15.762C6.92927 14.1873 5.6626 12.379 4.7046 10.337C3.7466 8.295 3.26727 6.19933 3.2666 4.05C3.2666 3.75 3.3666 3.5 3.5666 3.3C3.7666 3.1 4.0166 3 4.3166 3H8.3666C8.59994 3 8.80827 3.075 8.9916 3.225C9.17494 3.375 9.28327 3.56667 9.3166 3.8L9.9666 7.3C9.99993 7.53333 9.9956 7.746 9.9536 7.938C9.9116 8.13 9.81593 8.30067 9.6666 8.45L7.2666 10.9C7.9666 12.1 8.8416 13.225 9.8916 14.275C10.9416 15.325 12.0999 16.2333 13.3666 17L15.7166 14.65C15.8666 14.5 16.0626 14.3877 16.3046 14.313C16.5466 14.2383 16.7839 14.2173 17.0166 14.25L20.4666 14.95C20.6999 15 20.8916 15.1127 21.0416 15.288C21.1916 15.4633 21.2666 15.6673 21.2666 15.9V19.95C21.2666 20.25 21.1666 20.5 20.9666 20.7C20.7666 20.9 20.5166 21 20.2166 21Z" fill="currentColor"/>
</svg>
