<svg width="64" height="64" viewBox="0 0 64 64" fill="currentColor" xmlns="http://www.w3.org/2000/svg">
<g clip-path="url(#clip0_59_66)">
<path d="M52.0741 44.0096L43.3783 39.012L57.3716 28.617L65.9674 33.6146L52.0741 44.0096ZM33.1831 31.8154L43.5782 23.9192L15.9914 8.02682L9.99425 18.4218L33.1831 31.8154ZM-2 64V56.0038H17.9904V32.2152L5.99617 25.3185C4.06376 24.1857 2.81503 22.5705 2.24996 20.4729C1.6849 18.3752 1.96743 16.3588 3.09756 14.4238L9.09468 4.02874C10.2275 2.09633 11.844 0.847594 13.9444 0.282531C16.0447 -0.282531 18.0597 -2.38304e-07 19.9895 1.13012L58.0712 23.1196L33.6829 41.3109L25.9866 36.913V56.0038C25.9866 58.2028 25.203 60.0859 23.6357 61.6531C22.0685 63.2204 20.1867 64.0027 17.9904 64H-2Z" fill="currentColor"/>
</g>
<defs>
<clipPath id="clip0_59_66">
<rect width="64" height="64" fill="white"/>
</clipPath>
</defs>
</svg>
