<svg width="96" height="96" viewBox="0 0 96 96" fill="none" xmlns="http://www.w3.org/2000/svg">
<g opacity="0.5">
<path d="M78.1969 43.9876C76.3768 39.8913 73.731 36.2146 70.425 33.1876L67.6969 30.6845C67.6042 30.6018 67.4928 30.5431 67.3722 30.5136C67.2516 30.4841 67.1256 30.4847 67.0053 30.5152C66.8849 30.5457 66.7739 30.6054 66.682 30.6888C66.5901 30.7723 66.5201 30.877 66.4781 30.9938L65.2594 34.4907C64.5 36.6845 63.1031 38.9251 61.125 41.1282C60.9938 41.2688 60.8438 41.3063 60.7406 41.3157C60.6375 41.3251 60.4781 41.3063 60.3375 41.1751C60.2062 41.0626 60.1406 40.8938 60.15 40.7251C60.4969 35.0813 58.8094 28.7157 55.1156 21.7876C52.0594 16.0313 47.8125 11.5407 42.5062 8.40946L38.6344 6.13133C38.1281 5.83133 37.4813 6.22508 37.5094 6.81571L37.7156 11.3157C37.8562 14.3907 37.5 17.1095 36.6562 19.3688C35.625 22.1345 34.1437 24.7032 32.25 27.0095C30.9321 28.6123 29.4384 30.062 27.7969 31.3313C23.8435 34.3704 20.6289 38.2645 18.3937 42.722C16.1641 47.2183 15.0027 52.1688 15 57.1876C15 61.6126 15.8719 65.897 17.5969 69.9376C19.2625 73.8279 21.6662 77.3586 24.675 80.3345C27.7125 83.3345 31.2375 85.697 35.1656 87.3376C39.2344 89.0438 43.5469 89.9063 48 89.9063C52.4531 89.9063 56.7656 89.0438 60.8344 87.347C64.7528 85.7159 68.3161 83.3373 71.325 80.3438C74.3625 77.3438 76.7437 73.8376 78.4031 69.947C80.1255 65.9174 81.0091 61.5792 81 57.197C81 52.622 80.0625 48.1782 78.1969 43.9876ZM66.8438 75.797C61.8094 80.7845 55.125 83.522 48 83.522C40.875 83.522 34.1906 80.7845 29.1562 75.797C24.1406 70.8188 21.375 64.2188 21.375 57.197C21.375 53.1188 22.2938 49.2095 24.1031 45.572C25.8656 42.0188 28.4906 38.8407 31.6781 36.3938C33.711 34.8394 35.5548 33.0522 37.1719 31.0688C39.5156 28.2095 41.3531 25.022 42.6281 21.6001C43.1511 20.1886 43.5312 18.7281 43.7625 17.2407C46.0219 19.322 47.9156 21.8345 49.5 24.7782C52.6312 30.647 54.075 35.8688 53.7937 40.3126C53.7266 41.3592 53.8975 42.4074 54.2937 43.3784C54.6899 44.3494 55.3011 45.218 56.0813 45.9188C56.7574 46.5296 57.5481 46.9999 58.4075 47.3025C59.2669 47.605 60.1779 47.7338 61.0875 47.6813C62.9344 47.5876 64.6312 46.772 65.8687 45.3938C67.1156 43.997 68.1937 42.572 69.0938 41.1188C70.4062 42.797 71.5031 44.6251 72.375 46.5938C73.8656 49.9501 74.625 53.522 74.625 57.197C74.625 64.2188 71.8594 70.8282 66.8438 75.797Z" fill="#ABABAB"/>
</g>
</svg>
