<svg width="64" height="64" viewBox="0 0 64 64" fill="none" xmlns="http://www.w3.org/2000/svg">
<path d="M31.9999 5.33325C17.2959 5.33325 5.33325 17.2959 5.33325 31.9999V43.0479C5.33325 45.7786 7.72525 47.9999 10.6666 47.9999H13.3333C14.0405 47.9999 14.7188 47.719 15.2189 47.2189C15.719 46.7188 15.9999 46.0405 15.9999 45.3333V31.6186C15.9999 30.9113 15.719 30.2331 15.2189 29.733C14.7188 29.2329 14.0405 28.9519 13.3333 28.9519H10.9119C12.3946 18.6319 21.2746 10.6666 31.9999 10.6666C42.7253 10.6666 51.6053 18.6319 53.0879 28.9519H50.6666C49.9593 28.9519 49.2811 29.2329 48.781 29.733C48.2809 30.2331 47.9999 30.9113 47.9999 31.6186V47.9999C47.9999 50.9412 45.6079 53.3333 42.6666 53.3333H37.3333V50.6666H26.6666V58.6666H42.6666C48.5493 58.6666 53.3333 53.8826 53.3333 47.9999C56.2746 47.9999 58.6666 45.7786 58.6666 43.0479V31.9999C58.6666 17.2959 46.7039 5.33325 31.9999 5.33325Z" fill="#BEBEBE"/>
</svg>
