<svg width="494" height="566" viewBox="0 0 494 566" fill="none" xmlns="http://www.w3.org/2000/svg">
<g opacity="0.9" filter="url(#filter0_b_410_434)">
<path d="M-3.05176e-05 386.106L46.0859 406.268L63.1628 373.194L17.6642 355.725L-3.05176e-05 386.106Z" fill="#FF2931"/>
<path d="M376.935 497.633L316.344 496.268L326.269 530.936L391.49 538.704L376.935 497.633Z" fill="#FF2931"/>
<path d="M174.852 514.768L256.05 521.02L245.491 484.023L181.136 474.618L174.852 514.768Z" fill="#332D2E"/>
<path d="M204.236 559.748L285.434 566L274.875 529.003L210.52 519.599L204.236 559.748Z" fill="#332D2E"/>
<path d="M42.8416 437.071L89.3152 460.96L105.416 429.776L59.246 411.961L42.8416 437.071Z" fill="#332D2E"/>
<path d="M459.524 193.457L489.358 196.954L492.058 168.746L494 138.175L464.072 142.521L459.524 193.457Z" fill="#FF2931"/>
<path d="M431.654 108.155L460.02 103.006L461.252 66.151L458.554 29.2488L428.388 53.2037L431.654 108.155Z" fill="#332D2E"/>
<path d="M411.953 111.842L424.549 110.424L422.041 57.8351L409.35 67.0942L411.953 111.842Z" fill="#FF2931"/>
<path d="M408.273 163.22L421.071 165.271L425.26 116.706L411.859 119.683L408.273 163.22Z" fill="#332D2E"/>
<path d="M397.556 216.322L412.993 220.893L421.471 170.005L408.117 169.059L397.556 216.322Z" fill="#FF2931"/>
<path d="M383.3 270.74L396.559 279.529L404.705 256.094L409.657 231.184L394.856 225.381L383.3 270.74Z" fill="#332D2E"/>
<path d="M96.3708 462.614L131.603 474.806L168.444 483.879L174.365 449.434L111.667 432.989L96.3708 462.614Z" fill="#FF2931"/>
<path d="M446.845 435.202L470.238 451.173L478.431 423.815L485.866 394.095L459.253 384.361L446.845 435.202Z" fill="#FF2931"/>
<path d="M253.732 452.743L285.933 455.485L310.321 454.21L296.637 415.606L246.298 417.353L253.732 452.743Z" fill="#332D2E"/>
<path d="M386.66 424.727L400.345 463.33L417.961 436.871L434.821 408.049L414.743 377.997L386.66 424.727Z" fill="#332D2E"/>
<path d="M352.658 399.023L372.735 429.075L388.032 399.449L400.961 370.58L379.225 347.569L352.658 399.023Z" fill="#FF2931"/>
<path d="M304.545 411.779L316.714 445.658L331.915 423.876L345.554 401.291L328.555 376.768L304.545 411.779Z" fill="#FF2931"/>
<path d="M334.142 369.775L349.58 393.495L362.461 368.548L373.779 342.797L359.052 325.361L334.142 369.775Z" fill="#332D2E"/>
<path d="M181.516 443.245L214.474 448.349L246.676 451.09L240 418.062L186.631 410.359L181.516 443.245Z" fill="#FF2931"/>
<path d="M101.129 304.284L133.927 318.632L146.08 295.095L113.7 282.663L101.129 304.284Z" fill="#FF2931"/>
<path d="M280.944 345.981L237.823 345.009L244.886 369.682L291.301 375.21L280.944 345.981Z" fill="#FF2931"/>
<path d="M180.248 382.847L238.034 387.297L230.52 360.967L184.72 354.274L180.248 382.847Z" fill="#332D2E"/>
<path d="M180.248 382.847L238.034 387.297L230.52 360.967L184.72 354.274L180.248 382.847Z" fill="#332D2E"/>
<path d="M21.6627 313.267L54.7366 330.268L66.1953 308.075L33.3372 295.397L21.6627 313.267Z" fill="#332D2E"/>
<path d="M428.83 265.264L450.061 267.753L451.983 247.678L453.365 225.922L432.066 229.015L428.83 265.264Z" fill="#FF2931"/>
<path d="M368.06 56.1556L388.248 52.4908L389.124 26.2623L387.204 0L365.736 17.048L368.06 56.1556Z" fill="#332D2E"/>
<path d="M317.789 87.8554L326.754 86.8467L324.969 49.4203L315.937 56.0098L317.789 87.8554Z" fill="#FF2931"/>
<path d="M346.367 132.661L355.475 134.121L358.456 99.5586L348.919 101.677L346.367 132.661Z" fill="#332D2E"/>
<path d="M313.404 163.227L324.39 166.481L330.424 130.265L320.92 129.592L313.404 163.227Z" fill="#FF2931"/>
<path d="M328.594 209.18L338.03 215.435L343.827 198.757L347.351 181.029L336.818 176.899L328.594 209.18Z" fill="#332D2E"/>
<path d="M83.9882 345.731L109.062 354.408L135.281 360.865L139.494 336.351L94.8743 324.648L83.9882 345.731Z" fill="#FF2931"/>
<path d="M373.308 222.971L389.957 234.337L395.787 214.867L401.079 193.717L382.139 186.789L373.308 222.971Z" fill="#FF2931"/>
<path d="M327.413 260.528L342.343 275.223L351.544 254.677L359.059 234.67L341.838 224.413L327.413 260.528Z" fill="#332D2E"/>
<path d="M236.384 338.706L259.301 340.657L276.657 339.75L266.918 312.277L231.094 313.52L236.384 338.706Z" fill="#332D2E"/>
<path d="M283.937 339.28L293.676 366.753L306.213 347.922L318.211 327.41L303.922 306.024L283.937 339.28Z" fill="#332D2E"/>
<path d="M335.57 317.003L349.859 338.39L360.745 317.307L369.946 296.761L354.478 280.385L335.57 317.003Z" fill="#FF2931"/>
<path d="M253.067 276.028L261.728 300.138L272.546 284.637L282.253 268.564L270.154 251.111L253.067 276.028Z" fill="#FF2931"/>
<path d="M242.239 206.664L253.226 223.545L262.393 205.79L270.448 187.464L259.967 175.056L242.239 206.664Z" fill="#332D2E"/>
<path d="M166.895 267.482L190.351 271.114L213.268 273.065L208.517 249.56L170.535 244.078L166.895 267.482Z" fill="#FF2931"/>
</g>
<defs>
<filter id="filter0_b_410_434" x="-20" y="-20" width="534" height="606" filterUnits="userSpaceOnUse" color-interpolation-filters="sRGB">
<feFlood flood-opacity="0" result="BackgroundImageFix"/>
<feGaussianBlur in="BackgroundImageFix" stdDeviation="10"/>
<feComposite in2="SourceAlpha" operator="in" result="effect1_backgroundBlur_410_434"/>
<feBlend mode="normal" in="SourceGraphic" in2="effect1_backgroundBlur_410_434" result="shape"/>
</filter>
</defs>
</svg>
