<svg  viewBox="0 0 32 32" fill="currentColor" xmlns="http://www.w3.org/2000/svg">
<path d="M25.1922 23.1922L18.1222 30.2642C17.8436 30.543 17.5128 30.7641 17.1487 30.915C16.7846 31.0659 16.3943 31.1435 16.0002 31.1435C15.606 31.1435 15.2158 31.0659 14.8517 30.915C14.4876 30.7641 14.1568 30.543 13.8782 30.2642L6.80816 23.1922C5.60092 21.9851 4.64325 20.552 3.98985 18.9748C3.33644 17.3976 3.00009 15.7071 3 13.9999C2.99991 12.2927 3.33607 10.6022 3.98931 9.02489C4.64254 7.4476 5.60005 6.01442 6.80716 4.80718C8.01427 3.59994 9.44734 2.64228 11.0246 1.98887C12.6018 1.33547 14.2922 0.999116 15.9995 0.999023C17.7067 0.998931 19.3972 1.3351 20.9745 1.98833C22.5517 2.64156 23.9849 3.59907 25.1922 4.80618C26.3995 6.01337 27.3572 7.44655 28.0107 9.0239C28.6641 10.6012 29.0004 12.2919 29.0004 13.9992C29.0004 15.7065 28.6641 17.3971 28.0107 18.9745C27.3572 20.5518 26.3995 21.985 25.1922 23.1922ZM23.0722 6.92818C21.1965 5.05257 18.6527 3.99686 16.0002 3.99686C13.3476 3.99686 10.8038 5.05057 8.92816 6.92618C7.05255 8.80179 5.99884 11.3457 5.99884 13.9982C5.99884 16.6507 7.05255 19.1946 8.92816 21.0702L16.0002 28.1402L23.0722 21.0722C24.001 20.1436 24.7379 19.0411 25.2406 17.8276C25.7433 16.6142 26.002 15.3136 26.002 14.0002C26.002 12.6867 25.7433 11.3862 25.2406 10.1727C24.7379 8.95931 24.001 7.8568 23.0722 6.92818ZM16.0002 18.0002C15.4675 18.0122 14.9378 17.9177 14.4421 17.7222C13.9465 17.5267 13.4949 17.2342 13.1138 16.8618C12.7328 16.4893 12.43 16.0445 12.2232 15.5535C12.0164 15.0624 11.9099 14.535 11.9097 14.0022C11.9096 13.4694 12.0159 12.9419 12.2224 12.4508C12.429 11.9596 12.7315 11.5146 13.1124 11.142C13.4932 10.7694 13.9447 10.4766 14.4402 10.2809C14.9358 10.0852 15.4655 9.9904 15.9982 10.0022C17.0433 10.0253 18.0378 10.4566 18.7689 11.2039C19.5 11.9511 19.9095 12.9548 19.9097 14.0002C19.91 15.0456 19.501 16.0495 18.7703 16.7971C18.0396 17.5447 17.0453 17.9765 16.0002 18.0002Z" fill="currentColor"/>
</svg>
