<svg width="40" height="40" viewBox="0 0 40 40" fill="currentColor" xmlns="http://www.w3.org/2000/svg">
<path d="M6.66659 33.3332C5.74992 33.3332 4.96492 33.0065 4.31159 32.3532C3.65825 31.6998 3.33214 30.9154 3.33325 29.9998V9.99984C3.33325 9.08317 3.65992 8.29817 4.31325 7.64484C4.96659 6.99151 5.75103 6.6654 6.66659 6.66651H33.3333C34.2499 6.66651 35.0349 6.99317 35.6883 7.64651C36.3416 8.29984 36.6677 9.08428 36.6666 9.99984V29.9998C36.6666 30.9165 36.3399 31.7015 35.6866 32.3548C35.0333 33.0082 34.2488 33.3343 33.3333 33.3332H6.66659ZM19.9999 21.6665L6.66659 13.3332V29.9998H33.3333V13.3332L19.9999 21.6665ZM19.9999 18.3332L33.3333 9.99984H6.66659L19.9999 18.3332ZM6.66659 13.3332V9.99984V29.9998V13.3332Z" fill="currentColor"/>
</svg>
