<svg  viewBox="0 0 32 32" fill="none" xmlns="http://www.w3.org/2000/svg">
<path d="M16.0003 2.66699C8.64033 2.66699 2.66699 8.64033 2.66699 16.0003C2.66699 23.3603 8.64033 29.3337 16.0003 29.3337C23.3603 29.3337 29.3337 23.3603 29.3337 16.0003C29.3337 8.64033 23.3603 2.66699 16.0003 2.66699ZM22.187 11.7337C21.987 13.8403 21.1203 18.9603 20.6803 21.3203C20.4937 22.3203 20.1203 22.6537 19.7737 22.6937C19.0003 22.7603 18.4137 22.187 17.667 21.6937C16.4937 20.9203 15.827 20.4403 14.6937 19.6937C13.3737 18.827 14.227 18.347 14.987 17.5737C15.187 17.3737 18.6003 14.267 18.667 13.987C18.6763 13.9446 18.675 13.9006 18.6634 13.8587C18.6518 13.8169 18.6301 13.7785 18.6003 13.747C18.5203 13.6803 18.4137 13.707 18.3203 13.7203C18.2003 13.747 16.3337 14.987 12.6937 17.4403C12.1603 17.8003 11.6803 17.987 11.2537 17.9737C10.7737 17.9603 9.86699 17.707 9.18699 17.4803C8.34699 17.2137 7.69366 17.067 7.74699 16.6003C7.77366 16.3603 8.10699 16.1203 8.73366 15.867C12.627 14.1737 15.2137 13.0537 16.507 12.5203C20.2137 10.9737 20.9737 10.707 21.4803 10.707C21.587 10.707 21.8403 10.7337 22.0003 10.867C22.1337 10.9737 22.1737 11.1203 22.187 11.227C22.1737 11.307 22.2003 11.547 22.187 11.7337Z" fill="currentColor"/>
</svg>
