<svg width="64" height="64" viewBox="0 0 64 64" fill="none" xmlns="http://www.w3.org/2000/svg">
<path d="M32 1.28003C23.8526 1.28003 16.0388 4.51659 10.2777 10.2777C4.51659 16.0388 1.28003 23.8526 1.28003 32C1.28024 36.0342 2.07504 40.0289 3.61906 43.7559C5.16308 47.483 7.42608 50.8694 10.2788 53.7219C13.1316 56.5743 16.5183 58.837 20.2455 60.3806C23.9727 61.9243 27.9674 62.7186 32.0016 62.7184C36.0358 62.7182 40.0305 61.9234 43.7575 60.3794C47.4846 58.8354 50.871 56.5724 53.7235 53.7196C56.576 50.8669 58.8386 47.4802 60.3822 43.753C61.9259 40.0258 62.7202 36.031 62.72 31.9968C62.72 15.0336 48.9632 1.28003 32 1.28003ZM32 56.3168C28.8063 56.3168 25.6438 55.6878 22.6932 54.4656C19.7425 53.2434 17.0615 51.452 14.8032 49.1937C12.5449 46.9353 10.7535 44.2543 9.53128 41.3037C8.30908 38.3531 7.68003 35.1906 7.68003 31.9968C7.68003 28.8031 8.30908 25.6406 9.53128 22.69C10.7535 19.7393 12.5449 17.0583 14.8032 14.8C17.0615 12.5417 19.7425 10.7503 22.6932 9.52808C25.6438 8.30588 28.8063 7.67683 32 7.67683V32L53.7344 21.1328C55.4336 24.5034 56.3192 28.2254 56.32 32C56.3192 38.4495 53.7565 44.6346 49.1957 49.1948C44.6349 53.755 38.4495 56.3168 32 56.3168Z" fill="#BEBEBE"/>
</svg>
