<svg  viewBox="0 0 32 32" fill="none" xmlns="http://www.w3.org/2000/svg">
<path fill-rule="evenodd" clip-rule="evenodd" d="M22.2351 3.50406C18.0402 2.56635 13.69 2.56635 9.49507 3.50406L9.04307 3.60406C7.86277 3.86717 6.77866 4.4527 5.91142 5.29545C5.04419 6.1382 4.42786 7.20511 4.13107 8.37739C3.06959 12.5677 3.06959 16.9565 4.13107 21.1467C4.41414 22.2647 4.9881 23.2878 5.79464 24.1122C6.60117 24.9365 7.61153 25.5327 8.72307 25.8401L9.34307 29.5414C9.36286 29.6589 9.4138 29.769 9.49058 29.8602C9.56736 29.9513 9.66718 30.0202 9.77964 30.0597C9.8921 30.0992 10.0131 30.1078 10.13 30.0847C10.2469 30.0615 10.3555 30.0074 10.4444 29.9281L14.0857 26.6707C16.8192 26.8357 19.5623 26.6172 22.2351 26.0214L22.6884 25.9214C23.8687 25.6583 24.9528 25.0728 25.8201 24.23C26.6873 23.3873 27.3036 22.3203 27.6004 21.1481C28.6619 16.9578 28.6619 12.569 27.6004 8.37873C27.3035 7.20627 26.687 6.13925 25.8195 5.29648C24.952 4.45371 23.8676 3.86828 22.6871 3.60539L22.2351 3.50406ZM10.6204 8.26939C10.3726 8.23311 10.1198 8.283 9.9044 8.41073H9.88574C9.38574 8.70406 8.93507 9.07339 8.55107 9.50806C8.23107 9.87739 8.05774 10.2507 8.0124 10.6107C7.98574 10.8241 8.00441 11.0401 8.06707 11.2441L8.09107 11.2574C8.45107 12.3147 8.9204 13.3321 9.49374 14.2894C10.2333 15.6338 11.143 16.8774 12.2004 17.9894L12.2324 18.0347L12.2831 18.0721L12.3137 18.1081L12.3511 18.1401C13.467 19.2005 14.7135 20.1145 16.0604 20.8601C17.6004 21.6987 18.5351 22.0947 19.0964 22.2601V22.2681C19.2604 22.3187 19.4097 22.3414 19.5604 22.3414C20.0387 22.3071 20.4915 22.1126 20.8457 21.7894C21.2791 21.4054 21.6457 20.9534 21.9311 20.4507V20.4414C22.1991 19.9347 22.1084 19.4574 21.7217 19.1334C20.9457 18.454 20.1058 17.8512 19.2137 17.3334C18.6164 17.0094 18.0097 17.2054 17.7644 17.5334L17.2404 18.1947C16.9711 18.5227 16.4831 18.4774 16.4831 18.4774L16.4697 18.4854C12.8284 17.5561 11.8564 13.8694 11.8564 13.8694C11.8564 13.8694 11.8111 13.3681 12.1484 13.1121L12.8044 12.5841C13.1191 12.3281 13.3377 11.7227 13.0004 11.1254C12.4838 10.234 11.8824 9.39451 11.2044 8.61873C11.0561 8.43656 10.8484 8.31242 10.6177 8.26806M16.7724 6.66673C16.5956 6.66673 16.426 6.73697 16.301 6.86199C16.176 6.98701 16.1057 7.15658 16.1057 7.33339C16.1057 7.5102 16.176 7.67977 16.301 7.8048C16.426 7.92982 16.5956 8.00006 16.7724 8.00006C18.4591 8.00006 19.8591 8.55073 20.9671 9.60673C21.5364 10.1841 21.9804 10.8681 22.2711 11.6174C22.5631 12.3681 22.6964 13.1694 22.6617 13.9721C22.6581 14.0596 22.6717 14.147 22.7018 14.2293C22.7319 14.3116 22.7779 14.3872 22.8372 14.4517C22.957 14.5819 23.1236 14.6593 23.3004 14.6667C23.4772 14.6742 23.6497 14.611 23.78 14.4913C23.9103 14.3715 23.9876 14.2049 23.9951 14.0281C24.0349 13.0408 23.871 12.0559 23.5137 11.1347C23.1548 10.2088 22.6083 9.36721 21.9084 8.66273L21.8951 8.64939C20.5204 7.33606 18.7804 6.66673 16.7724 6.66673ZM16.7271 8.85873C16.5503 8.85873 16.3807 8.92897 16.2557 9.05399C16.1306 9.17901 16.0604 9.34858 16.0604 9.52539C16.0604 9.70221 16.1306 9.87177 16.2557 9.9968C16.3807 10.1218 16.5503 10.1921 16.7271 10.1921H16.7497C17.9657 10.2787 18.8511 10.6841 19.4711 11.3494C20.1071 12.0347 20.4364 12.8867 20.4111 13.9401C20.407 14.1169 20.4733 14.2881 20.5955 14.416C20.7176 14.5439 20.8856 14.618 21.0624 14.6221C21.2392 14.6261 21.4104 14.5598 21.5383 14.4376C21.6662 14.3155 21.7403 14.1475 21.7444 13.9707C21.7764 12.5881 21.3311 11.3947 20.4484 10.4427V10.4401C19.5457 9.47206 18.3071 8.96006 16.8164 8.86006L16.7937 8.85739L16.7271 8.85873ZM16.7017 11.0921C16.6125 11.0842 16.5226 11.0944 16.4374 11.122C16.3522 11.1496 16.2735 11.1942 16.2059 11.2529C16.1383 11.3117 16.0832 11.3834 16.0439 11.4639C16.0047 11.5444 15.982 11.632 15.9774 11.7215C15.9727 11.8109 15.9861 11.9004 16.0168 11.9845C16.0475 12.0687 16.0948 12.1458 16.1559 12.2112C16.2171 12.2767 16.2908 12.3291 16.3726 12.3655C16.4545 12.4018 16.5429 12.4213 16.6324 12.4227C17.1897 12.4521 17.5457 12.6201 17.7697 12.8454C17.9951 13.0721 18.1631 13.4361 18.1937 14.0054C18.1954 14.0949 18.2151 14.1831 18.2515 14.2648C18.288 14.3465 18.3406 14.42 18.4061 14.481C18.4716 14.542 18.5487 14.5891 18.6328 14.6196C18.7169 14.6502 18.8063 14.6635 18.8956 14.6587C18.985 14.654 19.0725 14.6313 19.1529 14.592C19.2333 14.5527 19.305 14.4977 19.3636 14.4301C19.4223 14.3626 19.4668 14.2839 19.4944 14.1988C19.522 14.1137 19.5322 14.0239 19.5244 13.9347C19.4817 13.1347 19.2311 12.4281 18.7177 11.9081C18.2017 11.3881 17.4991 11.1347 16.7017 11.0921Z" fill="currentColor"/>
</svg>
