<svg width="40" height="40" viewBox="0 0 40 40" fill="currentColor" xmlns="http://www.w3.org/2000/svg">
<g clip-path="url(#clip0_59_23)">
<path fill-rule="evenodd" clip-rule="evenodd" d="M19.9999 6.6665C21.4249 6.6665 22.8866 6.70317 24.3033 6.76317L25.9766 6.84317L27.5783 6.93817L29.0783 7.03984L30.4482 7.1465C31.935 7.2603 33.334 7.89475 34.3991 8.93824C35.4643 9.98172 36.1273 11.3674 36.2716 12.8515L36.3382 13.5598L36.4633 15.0765C36.5799 16.6482 36.6666 18.3615 36.6666 19.9998C36.6666 21.6382 36.5799 23.3515 36.4633 24.9232L36.3382 26.4398C36.3166 26.6832 36.2949 26.9182 36.2716 27.1482C36.1272 28.6325 35.464 30.0184 34.3985 31.0619C33.333 32.1055 31.9336 32.7397 30.4466 32.8532L29.0799 32.9582L27.5799 33.0615L25.9766 33.1565L24.3033 33.2365C22.8696 33.2988 21.4349 33.331 19.9999 33.3332C18.565 33.331 17.1302 33.2988 15.6966 33.2365L14.0233 33.1565L12.4216 33.0615L10.9216 32.9582L9.55159 32.8532C8.06484 32.7394 6.66584 32.1049 5.60071 31.0614C4.53557 30.018 3.87254 28.6323 3.72825 27.1482L3.66159 26.4398L3.53659 24.9232C3.40915 23.2851 3.34133 21.6429 3.33325 19.9998C3.33325 18.3615 3.41992 16.6482 3.53659 15.0765L3.66159 13.5598C3.68325 13.3165 3.70492 13.0815 3.72825 12.8515C3.87249 11.3677 4.53528 9.9822 5.60007 8.93874C6.66486 7.89529 8.06347 7.26067 9.54992 7.1465L10.9183 7.03984L12.4183 6.93817L14.0216 6.84317L15.6949 6.76317C17.1291 6.70089 18.5644 6.66866 19.9999 6.6665ZM16.6666 15.9582V24.0415C16.6666 24.8115 17.4999 25.2915 18.1666 24.9082L25.1666 20.8665C25.3189 20.7788 25.4454 20.6525 25.5334 20.5004C25.6214 20.3482 25.6677 20.1756 25.6677 19.9998C25.6677 19.8241 25.6214 19.6514 25.5334 19.4993C25.4454 19.3471 25.3189 19.2209 25.1666 19.1332L18.1666 15.0932C18.0145 15.0054 17.842 14.9592 17.6664 14.9592C17.4908 14.9592 17.3183 15.0055 17.1663 15.0933C17.0143 15.1812 16.888 15.3075 16.8003 15.4596C16.7126 15.6117 16.6665 15.7842 16.6666 15.9598V15.9582Z" fill="currentColor"/>
</g>
<defs>
<clipPath id="clip0_59_23">
<rect width="40" height="40" fill="currentColor"/>
</clipPath>
</defs>
</svg>
